HIERARCHY
ROOT SpineBase
{
  OFFSET 0.000000 0.000000 0.000000
  CHANNELS 6 Xposition Yposition Zposition Zrotation Xrotation Yrotation
  JOINT SpineMid
  {
    OFFSET -0.000000 30.902912 0.000000
    CHANNELS 3 Zrotation Xrotation Yrotation
    JOINT SpineShoulder
    {
      OFFSET -0.134342 22.681192 -0.758357
      CHANNELS 3 Zrotation Xrotation Yrotation
      JOINT Neck
      {
        OFFSET -0.076603 7.445525 -0.577969
        CHANNELS 3 Zrotation Xrotation Yrotation
        JOINT Head
        {
          OFFSET 3.092889 12.773776 -2.088693
          CHANNELS 3 Zrotation Xrotation Yrotation
          End Site
          {
            OFFSET 0 0 0
          }
        }
      }
      JOINT ShoulderLeft
      {
        OFFSET -14.889649 -3.009627 -6.481125
        CHANNELS 3 Zrotation Xrotation Yrotation
        JOINT ElbowLeft
        {
          OFFSET -6.483711 -19.772102 2.699889
          CHANNELS 3 Zrotation Xrotation Yrotation
          JOINT WristLeft
          {
            OFFSET 13.077205 -17.554720 -12.360716
            CHANNELS 3 Zrotation Xrotation Yrotation
            JOINT HandLeft
            {
              OFFSET 2.962522 -4.273526 -0.661345
              CHANNELS 3 Zrotation Xrotation Yrotation
              JOINT HandTipLeft
              {
                OFFSET 6.673725 -4.446068 -1.283352
                CHANNELS 3 Zrotation Xrotation Yrotation
                End Site
                {
                  OFFSET 0 0 0
                }
              }
              JOINT ThumbLeft
              {
                OFFSET -5.853500 -2.064619 -1.024523
                CHANNELS 3 Zrotation Xrotation Yrotation
                End Site
                {
                  OFFSET 0 0 0
                }
              }
            }
          }
        }
      }
      JOINT ShoulderRight
      {
        OFFSET 14.747077 -3.838297 4.979352
        CHANNELS 3 Zrotation Xrotation Yrotation
        JOINT ElbowRight
        {
          OFFSET 2.047802 -22.505166 8.763950
          CHANNELS 3 Zrotation Xrotation Yrotation
          JOINT WristRight
          {
            OFFSET 5.999943 -15.454999 -14.367553
            CHANNELS 3 Zrotation Xrotation Yrotation
            JOINT HandRight
            {
              OFFSET -2.855647 -5.549901 -3.876223
              CHANNELS 3 Zrotation Xrotation Yrotation
              JOINT HandTipRight
              {
                OFFSET -5.094493 -4.254417 -4.309772
                CHANNELS 3 Zrotation Xrotation Yrotation
                End Site
                {
                  OFFSET 0 0 0
                }
              }
              JOINT ThumbRight
              {
                OFFSET 2.793819 -3.607436 -0.607845
                CHANNELS 3 Zrotation Xrotation Yrotation
                End Site
                {
                  OFFSET 0 0 0
                }
              }
            }
          }
        }
      }
    }
  }
  JOINT HipLeft
  {
    OFFSET -6.516923 1.105028 -5.299445
    CHANNELS 3 Zrotation Xrotation Yrotation
    JOINT KneeLeft
    {
      OFFSET -5.803486 -26.193473 -6.722853
      CHANNELS 3 Zrotation Xrotation Yrotation
      JOINT AnkleLeft
      {
        OFFSET -0.856697 -29.493535 5.606134
        CHANNELS 3 Zrotation Xrotation Yrotation
        JOINT FootLeft
        {
          OFFSET 2.587803 -4.880228 -10.795221
          CHANNELS 3 Zrotation Xrotation Yrotation
          End Site
          {
            OFFSET 0 0 0
          }
        }
      }
    }
  }
  JOINT HipRight
  {
    OFFSET 5.916754 -0.620671 -1.481237
    CHANNELS 3 Zrotation Xrotation Yrotation
    JOINT KneeRight
    {
      OFFSET 10.044873 -25.118938 0.389598
      CHANNELS 3 Zrotation Xrotation Yrotation
      JOINT AnkleRight
      {
        OFFSET 1.860156 -31.976268 0.868849
        CHANNELS 3 Zrotation Xrotation Yrotation
        JOINT FootRight
        {
          OFFSET 4.136130 -6.024046 -3.990106
          CHANNELS 3 Zrotation Xrotation Yrotation
          End Site
          {
            OFFSET 0 0 0
          }
        }
      }
    }
  }
}
MOTION
Frames: 5
Frame Time: 0.033333
23.092087 77.315953 363.982630 -5.253119 -10.792550 -22.092357 -1.766852 1.125566 21.537372 -0.169674 0.394798 -0.295040 2.874111 13.437925 -0.917969 0.000000 0.000000 0.000000 -38.772870 10.181929 0.920647 8.866558 -21.873207 17.981747 -11.949805 8.222164 -16.620152 -17.024571 -1.068468 6.693322 0.000000 0.000000 0.000000 0.000000 0.000000 0.000000 11.782355 2.861032 1.032516 -76.783400 11.915711 91.450955 10.662751 3.222104 -46.213733 56.376262 -63.933422 28.138613 0.000000 0.000000 0.000000 0.000000 0.000000 0.000000 10.758474 -11.611036 27.401090 -7.465279 15.380869 -4.256708 10.348307 11.077143 -4.926779 0.000000 0.000000 0.000000 -17.145234 -10.719969 14.901264 11.206366 -7.259197 2.563591 -14.721514 26.265664 35.306068 0.000000 0.000000 0.000000
23.176391 77.330948 363.904777 -6.051688 -9.844293 -22.652882 -1.878021 1.205679 22.066154 -0.175074 0.379271 -0.328244 4.220678 10.496438 -0.528071 0.000000 0.000000 0.000000 -42.274396 16.001099 1.080438 16.436431 -34.275682 8.035004 -11.264249 13.872065 -0.433279 -17.005698 -1.743927 -1.359656 0.000000 0.000000 0.000000 0.000000 0.000000 0.000000 8.667646 3.469811 0.129347 -72.298167 10.843904 89.774853 9.830016 3.093022 -46.078228 48.703964 -61.730339 22.163155 0.000000 0.000000 0.000000 0.000000 0.000000 0.000000 11.794327 -12.375863 28.080840 -6.830778 15.422221 -4.479733 9.541319 10.426152 -4.281497 0.000000 0.000000 0.000000 -16.119110 -11.554135 15.056383 11.207866 -7.196557 2.596600 -7.777155 34.679418 31.762220 0.000000 0.000000 0.000000
23.248546 77.374325 363.826342 -6.718983 -8.894187 -22.887078 -1.918575 1.271210 22.288969 -0.129609 0.399525 -0.351024 5.350144 7.502656 -0.081361 0.000000 0.000000 0.000000 -45.932385 23.636420 1.958170 23.681047 -44.796939 6.785790 -13.929123 18.549532 11.453726 -16.939917 -3.269201 -5.992943 0.000000 0.000000 0.000000 0.000000 0.000000 0.000000 5.955609 3.692684 -0.664089 -71.923591 15.529660 93.607195 8.241103 2.396150 -49.069667 52.863892 -61.894169 24.497831 0.000000 0.000000 0.000000 0.000000 0.000000 0.000000 12.633167 -12.968901 28.372984 -6.446463 15.111875 -4.605654 8.565995 2.983101 -7.616321 0.000000 0.000000 0.000000 -15.361178 -12.204685 15.021298 11.382132 -7.374448 2.525579 -3.599290 40.688494 30.199414 0.000000 0.000000 0.000000
23.361701 77.418149 363.729539 -7.154204 -7.997212 -22.647237 -1.808346 1.293126 22.052831 -0.030577 0.413695 -0.359032 5.810798 5.016912 0.299484 0.000000 0.000000 0.000000 -49.782398 31.573657 3.586086 30.370678 -52.667930 12.785892 -19.008964 21.851718 21.248478 -15.673199 -5.402707 0.374850 0.000000 0.000000 0.000000 0.000000 0.000000 0.000000 3.900380 3.510843 -1.266227 -76.152679 28.940131 102.253740 1.449885 3.040815 -54.091387 31.650241 -61.105448 13.535743 0.000000 0.000000 0.000000 0.000000 0.000000 0.000000 13.162086 -13.555130 28.188341 -6.283910 14.608165 -4.656923 7.278907 -3.807134 -10.569553 0.000000 0.000000 0.000000 -15.029735 -12.879840 14.504220 11.630380 -7.419173 2.481644 -6.248843 40.246256 33.192665 0.000000 0.000000 0.000000
23.500778 77.492314 363.629098 -7.335820 -7.230130 -22.129180 -1.552323 1.239650 21.544339 0.096939 0.415407 -0.352688 4.940047 3.454340 0.447682 0.000000 0.000000 0.000000 -55.048759 40.020026 6.558080 36.694806 -58.673245 25.098043 -23.317582 25.025435 28.618834 -14.426623 -8.570640 -2.103073 0.000000 0.000000 0.000000 0.000000 0.000000 0.000000 2.537648 3.466995 -1.592523 -87.967307 55.112298 117.081159 -13.266964 8.201204 -59.534458 21.067128 -52.239274 2.724030 0.000000 0.000000 0.000000 0.000000 0.000000 0.000000 13.342942 -14.004883 27.689638 -6.407206 13.983982 -4.618732 6.161892 -8.879412 -12.735548 0.000000 0.000000 0.000000 -15.122701 -13.505344 13.738005 12.003064 -7.417791 2.434110 -10.687962 37.013713 36.883771 0.000000 0.000000 0.000000
